<svg width="512" height="512" viewBox="0 0 512 512" fill="none" xmlns="http://www.w3.org/2000/svg">
<rect width="512" height="512" fill="#3657AD"/>
<path d="M436.971 277.524C436.686 274.048 434.333 271.087 431.013 270.022L386.111 255.62L371.708 210.723C370.858 208.074 368.782 205.999 366.133 205.149L321.233 190.748L306.833 145.854C305.983 143.205 303.906 141.128 301.257 140.279L256.36 125.88L241.96 80.9871C240.894 77.6671 237.933 75.3149 234.457 75.0296C230.979 74.7409 227.676 76.5819 226.083 79.6839L121.136 284.12L97.0679 308.186C67.644 337.607 67.644 385.479 97.0679 414.899C111.322 429.152 130.273 437 150.43 437C170.588 437 189.538 429.152 203.792 414.899L227.86 390.834L432.315 285.897C435.419 284.304 437.256 281 436.971 277.524ZM231.906 106.088L240.091 131.603L179.923 229.797C177.435 233.855 178.71 239.162 182.769 241.649C184.175 242.51 185.728 242.92 187.264 242.92C190.164 242.92 192.996 241.456 194.622 238.803L253.32 143.009L291.771 155.34L304.566 195.226L274.244 225.548C270.878 228.914 270.878 234.372 274.245 237.737C275.927 239.421 278.133 240.262 280.339 240.262C282.545 240.262 284.751 239.42 286.434 237.737L316.755 207.415L356.646 220.21L368.981 258.661L208.255 357.131L187.644 336.521L262.054 262.115C265.42 258.749 265.42 253.291 262.054 249.925C258.687 246.56 253.229 246.56 249.862 249.925L175.454 324.331L154.842 303.721L176.692 268.063C179.18 264.004 177.905 258.697 173.846 256.21C169.784 253.723 164.479 254.998 161.993 259.057L142.306 291.187L138.724 287.605L231.906 106.088ZM191.602 402.71C180.605 413.706 165.983 419.762 150.43 419.762C134.878 419.762 120.255 413.706 109.258 402.709C86.556 380.01 86.556 343.074 109.258 320.374L128.186 301.448L210.53 383.783L191.602 402.71ZM224.374 373.248L220.794 369.667L380.39 271.889L405.91 280.074L224.374 373.248Z" fill="white"/>
</svg>
